<?xml version="1.0" standalone="no"?>
<!DOCTYPE svg>
<svg version="1.0" xmlns="http://www.w3.org/2000/svg"
 width="672.000000pt" height="614.000000pt" viewBox="0 0 672.000000 614.000000"
 preserveAspectRatio="xMidYMid meet">
<metadata>
Created by potrace 1.15, written by Peter Selinger 2001-2017
</metadata>
<g transform="translate(0.000000,614.000000) scale(0.100000,-0.100000)"
fill="#006600" stroke="none">
<path d="M5055 6130 c-29 -4 -38 -8 -22 -8 -16 -1 25 -6 22 -12 -3 -5 -50 -10
-103 -11 -53 0 -122 -5 -152 -10 -126 -22 -123 -22 -115 -9 6 9 4 11 -4 6 -7
-5 -38 -8 -69 -7 -31 0 -70 -4 -87 -9 -38 -11 -126 -28 -190 -35 -27 -4 -63
-10 -80 -15 -16 -5 -57 -14 -90 -20 -33 -6 -103 -22 -155 -35 -52 -12 -135
-32 -185 -43 -117 -26 -219 -55 -225 -64 -3 -4 -34 -11 -69 -17 -36 -6 -68
-15 -71 -21 -5 -7 -21 -9 -44 -5 -26 5 -47 2 -78 -13 -24 -11 -59 -23 -78 -26
-49 -10 -132 -35 -152 -47 -10 -5 -29 -9 -43 -9 -14 0 -28 -6 -31 -14 -3 -8
-20 -18 -37 -22 -17 -3 -49 -17 -71 -29 -23 -12 -52 -26 -66 -30 -22 -7 -77
-41 -90 -56 -3 -3 -13 -8 -22 -12 -10 -3 -18 -13 -18 -22 0 -10 -10 -15 -29
-15 -60 0 -78 -25 -44 -62 14 -16 14 -18 0 -18 -20 0 -34 -40 -17 -50 9 -6 8
-10 -5 -17 -15 -9 -15 -11 -1 -26 9 -8 16 -28 16 -44 0 -16 5 -34 12 -41 8 -8
8 -15 -2 -27 -11 -13 -8 -16 21 -22 19 -4 37 -6 40 -5 4 1 10 -10 13 -24 6
-21 12 -25 37 -22 24 2 34 -2 44 -22 8 -14 14 -19 15 -11 0 11 4 11 18 -2 26
-23 40 -21 92 13 25 16 50 30 55 30 6 0 40 15 75 34 35 19 68 32 72 30 4 -3 8
3 8 13 0 15 2 16 10 3 5 -8 10 -10 10 -4 0 19 107 64 155 64 17 0 42 8 58 18
18 12 49 20 89 21 37 1 66 8 75 17 8 8 20 14 27 14 7 0 21 9 31 20 13 14 31
20 62 20 24 0 42 4 39 8 -14 23 150 70 170 49 4 -4 14 -7 23 -7 14 0 14 2 2 9
-12 7 -7 13 22 27 20 10 37 21 37 26 0 4 5 8 11 8 5 0 7 -6 3 -12 -6 -10 -5
-10 8 -1 8 7 18 10 21 6 4 -3 7 -2 7 3 0 5 10 10 23 11 12 1 37 5 56 8 26 5
31 9 20 16 -12 7 -12 9 1 10 8 1 20 3 25 3 6 1 16 5 22 9 9 5 11 3 7 -6 -3 -8
1 -14 10 -14 8 0 12 6 8 15 -4 12 1 14 30 8 20 -3 47 -2 62 4 15 5 26 6 26 0
0 -4 -6 -10 -12 -13 -7 -2 1 -2 17 1 17 2 34 8 40 13 5 5 18 9 30 10 11 0 14
3 8 6 -10 3 -10 8 1 19 11 10 29 12 70 8 38 -4 56 -3 56 5 0 11 -13 15 -40 11
-11 -1 -12 1 -4 10 8 8 22 9 45 3 46 -12 95 -9 91 5 -1 7 5 12 14 12 9 0 12
-5 8 -11 -5 -9 1 -10 22 -5 16 4 31 12 32 17 5 12 32 12 32 -1 0 -6 6 -9 13
-8 6 2 11 -3 9 -11 -2 -11 8 -13 48 -9 28 3 53 8 57 12 13 13 -6 16 -46 7 -22
-5 -39 -5 -36 -1 5 8 32 15 117 29 52 8 75 21 38 21 -32 0 -22 6 23 14 28 5
37 4 32 -4 -5 -8 4 -11 31 -9 22 1 44 5 49 8 6 3 37 6 70 7 33 2 89 6 125 10
55 5 62 8 43 17 -28 12 -31 31 -4 24 10 -2 25 -1 32 4 12 7 11 9 -1 9 -11 0
-12 2 -3 8 7 4 36 7 64 6 53 -3 81 -13 38 -15 -19 -1 -17 -3 11 -11 19 -6 29
-13 23 -15 -28 -10 -10 -23 32 -23 25 0 45 5 45 10 0 6 8 10 18 10 14 0 15 2
2 10 -8 5 -12 12 -8 15 3 3 12 -1 20 -8 11 -11 39 -15 109 -14 94 1 125 -6
114 -24 -9 -13 8 -18 123 -32 71 -10 102 -10 102 -3 0 6 4 5 9 -3 5 -8 16 -11
26 -8 10 5 14 3 9 -4 -5 -9 4 -10 31 -5 22 5 40 3 44 -2 3 -6 13 -12 21 -14 8
-2 19 -8 25 -15 5 -7 29 -13 52 -15 32 -1 44 -7 52 -25 6 -13 17 -23 25 -23
23 0 26 -26 5 -66 -10 -21 -19 -44 -19 -51 0 -7 -25 -38 -55 -68 -30 -31 -55
-59 -55 -63 0 -4 -9 -12 -19 -17 -11 -6 -47 -25 -80 -42 -34 -18 -68 -33 -75
-33 -8 0 -16 -3 -18 -7 -9 -21 -74 -55 -107 -57 -21 -2 -49 -10 -62 -20 -13
-9 -34 -16 -46 -16 -13 0 -23 -4 -23 -9 0 -5 -21 -17 -47 -26 -27 -10 -57 -21
-68 -25 -20 -8 -243 -63 -390 -96 -44 -10 -82 -21 -85 -25 -3 -3 -19 -9 -37
-12 -26 -5 -35 -2 -48 16 -8 12 -15 34 -15 49 0 16 -4 28 -8 28 -8 0 -12 14
-13 53 0 9 -4 17 -9 17 -6 0 -16 16 -24 35 -8 19 -22 35 -31 35 -9 0 -18 7
-21 15 -4 9 -19 15 -36 15 -17 0 -37 8 -45 18 -10 12 -16 14 -19 5 -3 -7 -19
-13 -35 -13 -16 0 -29 -4 -29 -9 0 -5 -8 -17 -17 -27 -10 -9 -18 -22 -18 -28
-1 -24 -27 -86 -37 -86 -6 0 -8 -9 -5 -20 3 -11 1 -22 -3 -25 -5 -3 -14 -38
-21 -78 -12 -68 -26 -104 -37 -92 -3 3 -11 0 -18 -5 -6 -6 -35 -13 -63 -17
-36 -4 -51 -10 -51 -21 0 -8 -3 -12 -6 -9 -4 3 -16 0 -28 -8 -25 -18 -63 -20
-68 -3 -5 13 -66 3 -228 -37 -52 -13 -119 -27 -149 -31 -51 -7 -98 -34 -83
-49 4 -4 -1 -13 -12 -20 -13 -10 -17 -22 -13 -42 3 -15 1 -38 -5 -52 -6 -17
-6 -27 1 -29 5 -2 7 -10 4 -18 -3 -8 1 -14 8 -14 8 -1 4 -6 -9 -13 -26 -15
-19 -27 15 -27 22 0 24 -3 18 -30 -6 -26 -3 -32 24 -48 35 -20 39 -34 13 -60
-18 -18 -17 -19 27 -40 60 -27 211 -41 247 -22 20 11 31 11 58 2 34 -13 141 0
161 19 16 15 105 11 105 -5 0 -8 4 -16 10 -18 5 -2 2 -18 -7 -36 -10 -21 -13
-36 -6 -40 12 -9 14 -92 2 -92 -5 0 -9 -7 -9 -15 0 -8 4 -15 9 -15 6 0 8 -10
5 -22 -3 -13 -7 -83 -10 -155 -3 -114 -7 -136 -23 -152 -11 -11 -22 -17 -24
-14 -3 2 -35 2 -72 -2 -42 -5 -62 -11 -54 -16 14 -8 8 -13 -36 -22 -18 -4 -18
-5 3 -6 12 0 22 -5 22 -11 0 -5 0 -13 0 -17 0 -5 -24 -7 -53 -5 -34 2 -47 0
-38 -6 19 -13 5 -19 -66 -27 -59 -6 -63 -6 -63 13 0 22 -13 23 -44 5 -15 -8
-28 -7 -53 5 -24 12 -36 13 -41 5 -4 -6 -18 -13 -32 -16 -23 -4 -22 -4 5 -6
17 -1 37 -5 44 -10 12 -8 9 -11 -12 -16 -15 -4 -24 -11 -21 -16 3 -5 2 -9 -3
-8 -32 5 -193 -3 -189 -10 3 -4 -28 -11 -70 -13 -41 -3 -80 -10 -87 -17 -6 -6
-22 -11 -37 -11 -14 -1 -47 -7 -75 -14 -52 -14 -89 -11 -63 5 9 6 6 9 -10 9
-16 0 -22 -5 -20 -16 3 -18 -18 -28 -84 -39 -21 -3 -38 -10 -38 -16 0 -19 34
-22 62 -6 17 9 49 17 72 17 23 0 51 7 62 15 19 13 59 13 72 1 8 -9 -47 -26
-81 -26 -18 0 -68 -11 -112 -25 -44 -14 -94 -25 -110 -25 -17 0 -35 -4 -40 -9
-6 -5 -30 -12 -55 -15 -66 -9 -79 -12 -86 -19 -4 -4 -12 -7 -18 -7 -6 0 -5 4
3 9 9 6 4 10 -18 13 -21 3 -31 0 -31 -9 0 -7 -11 -13 -27 -13 -25 0 -26 0 -8
-20 18 -20 17 -20 -28 -20 -25 0 -48 -4 -51 -9 -5 -8 -28 -14 -100 -26 -34 -6
-47 -15 -22 -15 9 0 15 -4 11 -10 -4 -6 -15 -6 -31 0 -32 13 -101 13 -108 1
-4 -5 -24 -12 -46 -16 -40 -7 -66 -25 -36 -25 24 0 19 -17 -6 -24 -13 -3 -45
-6 -73 -6 -34 0 -45 -3 -36 -9 11 -7 4 -11 -25 -17 -21 -4 -33 -9 -26 -11 6
-3 12 -11 12 -19 0 -8 5 -14 10 -14 6 0 10 -4 10 -9 0 -10 -41 -23 -83 -26
-16 -1 -32 -8 -37 -15 -4 -6 -29 -15 -56 -18 -44 -5 -48 -4 -36 11 12 14 10
15 -15 11 -15 -3 -29 -9 -31 -15 -2 -5 -25 -9 -50 -9 -30 0 -42 -3 -33 -9 11
-7 11 -10 0 -15 -9 -3 -6 -5 6 -5 55 3 57 -15 4 -26 -21 -5 -27 -10 -19 -15
13 -8 2 -11 -85 -26 -22 -4 -63 -17 -92 -30 -28 -13 -57 -24 -62 -24 -6 0 -11
-4 -11 -9 0 -5 -17 -12 -37 -16 -33 -6 -35 -8 -18 -18 25 -14 87 -17 101 -6 8
7 11 4 10 -8 -1 -14 6 -17 37 -14 36 2 38 1 32 -19 -7 -21 -6 -21 24 -6 16 9
41 16 55 16 14 0 28 5 31 10 3 6 17 10 30 10 13 0 26 4 29 9 3 4 27 14 53 21
27 6 65 18 86 26 20 8 65 14 100 15 39 1 53 3 38 8 l-23 6 25 14 c17 9 43 12
73 8 26 -3 57 0 68 6 51 25 56 27 56 17 0 -5 12 -10 28 -9 l27 1 -25 8 c-29 9
-28 10 20 17 19 2 37 8 40 11 3 4 11 7 18 8 6 1 24 2 40 3 l27 2 -25 11 -25
11 33 10 c24 7 43 7 67 -2 21 -7 41 -8 56 -2 13 4 48 12 77 16 28 4 50 10 47
15 -7 11 20 20 61 20 41 0 160 27 188 42 11 6 62 10 114 9 101 -1 142 5 142
21 0 5 -6 6 -12 2 -7 -4 -5 1 4 11 10 11 34 19 60 21 24 1 57 8 73 14 38 16
85 20 85 8 0 -10 103 -8 120 2 6 4 10 13 8 21 -4 17 103 31 114 15 5 -7 8 -6
8 4 0 12 2 12 9 1 6 -9 11 -10 15 -2 4 6 18 11 32 11 16 0 23 -4 18 -11 -4 -7
1 -9 12 -7 11 2 18 10 16 16 -3 14 -5 14 38 2 38 -11 94 -4 84 11 -3 5 10 9
30 9 19 0 37 -6 39 -12 3 -8 6 -6 6 5 1 12 9 17 34 17 17 0 39 -5 47 -10 12
-8 9 -10 -12 -10 -16 0 -28 -4 -28 -8 0 -8 110 -4 120 5 2 2 -2 8 -10 13 -8 6
-10 10 -4 10 6 0 14 -3 18 -7 4 -5 31 -8 59 -8 l52 0 12 -128 c6 -71 13 -138
16 -148 3 -10 0 -22 -5 -25 -6 -4 -4 -11 7 -17 14 -8 15 -11 4 -18 -11 -7 -10
-9 4 -9 12 0 17 -6 15 -17 -5 -28 -214 -70 -385 -78 -41 -2 -103 -8 -137 -14
-33 -5 -104 -17 -156 -26 -52 -9 -109 -23 -127 -31 -18 -8 -43 -12 -56 -9 -15
4 -28 1 -36 -9 -8 -10 -30 -16 -56 -16 -27 0 -50 -7 -63 -19 -14 -11 -31 -16
-46 -14 -28 6 -96 -14 -96 -28 0 -5 -19 -9 -42 -9 -56 -1 -144 -25 -141 -39 3
-11 -57 -31 -97 -31 -24 -1 -24 -1 5 -14 29 -12 29 -13 8 -20 -12 -4 -54 -7
-93 -8 -39 0 -73 -4 -76 -9 -3 -5 -10 -7 -15 -4 -5 4 -9 1 -9 -4 0 -6 -11 -11
-25 -11 -14 0 -28 -6 -31 -14 -3 -7 -27 -16 -54 -20 -52 -7 -104 -29 -93 -39
3 -4 -5 -7 -18 -7 -13 0 -33 -7 -43 -15 -11 -8 -32 -15 -48 -15 -15 0 -28 -4
-28 -9 0 -5 -13 -14 -30 -20 -30 -10 -41 -31 -17 -31 8 0 7 -4 -3 -10 -8 -5
-22 -7 -32 -4 -9 2 -19 0 -23 -6 -3 -5 -21 -10 -38 -10 -25 0 -29 -3 -17 -11
11 -8 5 -9 -25 -4 -26 4 -35 2 -26 -4 23 -15 2 -31 -43 -31 -44 0 -122 -31
-110 -43 4 -4 0 -7 -9 -7 -10 0 -17 -4 -17 -9 0 -5 -22 -14 -50 -21 -49 -12
-62 -23 -37 -33 6 -3 -1 -6 -16 -6 -38 -1 -70 -19 -63 -36 3 -9 -6 -16 -27
-21 -18 -4 -47 -14 -66 -23 -32 -15 -32 -16 -10 -22 19 -5 15 -8 -23 -14 -37
-5 -48 -12 -48 -25 0 -19 -17 -29 -65 -37 -42 -7 -74 -25 -56 -31 9 -3 1 -9
-20 -16 -22 -8 -33 -17 -31 -27 2 -12 -9 -18 -38 -23 -22 -3 -40 -11 -40 -16
0 -6 -4 -10 -10 -10 -9 0 -35 -19 -65 -47 -8 -7 -17 -13 -21 -13 -11 0 -33
-34 -34 -51 0 -9 -8 -16 -17 -16 -40 0 -53 -4 -53 -14 0 -17 -29 -41 -41 -34
-6 4 -13 -1 -15 -11 -3 -11 -24 -29 -47 -41 -23 -12 -41 -26 -39 -32 1 -7 -5
-14 -13 -17 -8 -4 -15 -12 -15 -20 0 -8 -8 -14 -17 -14 -15 0 -16 -2 -3 -10 8
-5 12 -11 9 -14 -4 -5 -38 -13 -61 -15 -5 -1 -8 -8 -8 -16 0 -8 -6 -15 -13
-15 -20 0 -50 -37 -42 -50 5 -8 21 -10 41 -7 41 7 44 0 7 -14 -16 -6 -23 -13
-16 -16 23 -9 -61 -73 -96 -73 -11 0 -23 -5 -27 -12 -4 -7 -3 -8 4 -4 7 4 12
2 12 -3 0 -6 -9 -11 -21 -11 -11 0 -30 -5 -42 -11 l-21 -12 24 -10 25 -9 -30
-11 c-16 -5 -33 -14 -36 -20 -4 -5 -12 -8 -19 -5 -8 2 -5 12 9 30 l21 26 -21
-5 c-11 -3 -25 -16 -29 -29 -5 -13 -21 -26 -35 -30 -14 -3 -25 -13 -25 -21 0
-8 5 -11 10 -8 6 3 20 3 33 -1 21 -7 21 -7 2 -14 -11 -4 -31 -3 -45 2 -18 7
-26 6 -29 -3 -2 -7 -21 -30 -42 -51 -38 -38 -38 -39 -16 -49 21 -9 21 -9 1 -6
-26 5 -54 -9 -54 -28 0 -8 -7 -15 -15 -15 -9 0 -19 -8 -22 -17 -4 -10 -12 -22
-19 -28 -15 -13 -25 -55 -12 -55 5 0 6 -4 3 -10 -3 -5 2 -10 12 -11 11 0 13
-3 5 -6 -6 -2 -10 -9 -6 -14 3 -5 -10 -9 -29 -9 -40 0 -72 -36 -56 -61 15 -23
10 -39 -14 -49 -12 -5 -15 -9 -8 -9 11 -1 12 -4 3 -13 -8 -8 -8 -17 -1 -30 8
-14 7 -19 -3 -17 -33 4 -40 -4 -14 -16 28 -12 28 -13 9 -19 -12 -4 -25 -5 -31
-4 -5 2 -12 -1 -13 -7 -2 -5 5 -11 16 -13 43 -7 51 -13 33 -23 -9 -5 -14 -17
-11 -27 2 -11 -2 -26 -11 -34 -14 -14 -12 -17 15 -29 28 -11 29 -13 12 -22
-29 -16 -29 -16 1 -42 30 -26 41 -31 32 -16 -4 5 9 8 26 7 51 -5 54 -6 38 -16
-11 -7 -6 -10 20 -10 26 0 31 3 20 10 -13 9 -13 10 1 10 19 0 59 44 59 65 0 8
4 15 9 15 9 0 67 52 64 57 -8 10 -1 22 16 28 12 4 18 12 14 21 -3 7 0 14 7 14
6 0 9 4 6 9 -3 5 4 11 15 14 14 4 20 11 16 21 -7 17 32 46 61 46 10 0 30 10
43 22 17 14 19 19 6 15 -11 -4 -17 -1 -17 8 0 10 11 15 34 15 19 0 38 5 41 10
3 6 -1 10 -9 10 -10 0 -13 6 -10 15 4 8 13 15 21 15 10 0 13 6 9 16 -3 8 -2
12 4 9 6 -3 10 -1 10 4 0 6 -7 11 -15 11 -8 0 -15 5 -15 10 0 8 24 12 65 10 3
0 16 11 29 25 13 14 30 25 37 25 10 1 8 5 -5 15 -15 11 -16 15 -5 19 42 13 91
41 83 48 -3 3 18 14 47 23 36 12 47 20 38 26 -12 7 -12 9 0 9 8 0 11 6 7 16
-3 8 -2 12 4 9 6 -3 10 -1 10 4 0 6 9 11 20 11 12 0 20 7 20 18 0 13 2 14 9 3
7 -11 10 -9 16 8 4 13 15 21 30 21 18 0 22 4 18 20 -3 13 0 20 8 20 19 0 59
44 59 64 0 9 5 16 10 16 6 0 10 11 10 25 0 22 4 25 40 25 45 0 80 29 80 67 0
18 6 23 24 23 13 0 36 7 52 14 15 8 31 13 36 10 4 -3 8 3 8 13 0 13 3 15 8 5
9 -14 42 -6 42 10 0 6 11 8 24 6 19 -4 23 -1 19 11 -3 11 0 10 13 -4 14 -17
16 -17 11 -2 -5 13 -1 17 21 18 l27 1 -25 8 c-21 7 -13 15 11 12 4 -1 5 8 2
18 -4 16 0 20 18 20 22 1 22 2 7 14 -24 18 -3 39 24 25 18 -10 46 4 68 33 3 4
22 8 42 10 27 1 34 6 30 17 -3 9 -1 12 6 7 7 -4 12 -1 12 8 0 9 5 16 10 16 6
0 10 7 10 15 0 14 11 19 38 16 6 -1 12 2 12 7 0 9 37 21 95 29 17 3 32 9 33
14 2 5 8 7 13 3 23 -14 6 13 -19 29 l-27 18 57 -5 c36 -3 57 -1 55 6 -1 5 21
17 48 25 28 8 61 20 75 26 14 6 28 10 33 9 4 -1 7 6 7 17 0 28 26 44 87 52 65
9 73 14 47 34 -18 13 -18 14 -1 15 10 0 16 4 13 8 -3 5 0 9 7 10 7 0 50 7 97
15 71 12 81 16 62 24 -20 7 -15 9 30 11 29 0 62 2 73 2 11 0 35 -2 53 -6 21
-4 32 -2 32 5 0 6 -5 11 -11 11 -5 0 -7 5 -3 11 4 7 25 9 55 7 33 -4 49 -1 49
6 0 7 15 16 33 21 25 8 31 15 30 32 -2 16 4 23 26 28 16 3 40 3 55 -1 16 -4
26 -2 26 5 0 6 7 11 16 11 8 0 13 4 9 9 -3 5 4 12 15 16 11 4 18 10 16 14 -8
12 84 13 99 1 9 -7 21 -7 39 0 15 5 46 10 69 11 32 0 37 2 22 9 -11 4 -33 6
-50 4 -16 -2 -23 -1 -15 3 18 8 40 29 35 34 -2 2 28 2 66 1 42 -2 75 1 83 7 8
7 55 13 106 15 58 2 95 8 100 16 4 7 20 10 40 6 39 -6 58 2 39 16 -9 6 9 7 51
3 117 -11 170 -11 157 -2 -7 5 9 6 38 2 89 -13 124 -14 131 -4 3 5 15 7 27 4
17 -5 18 -4 8 4 -16 10 -7 14 62 24 22 3 25 2 16 -9 -9 -11 -7 -14 10 -14 11
0 21 4 21 9 0 9 35 7 63 -4 10 -4 17 -3 17 4 0 8 34 11 111 9 79 -1 113 2 118
11 4 7 22 13 39 13 29 1 32 4 32 35 0 23 5 33 15 33 12 0 15 17 15 90 0 59 4
90 11 90 6 0 8 7 5 16 -4 9 -2 22 2 28 14 17 10 46 -5 46 -9 0 -13 15 -13 50
0 27 -4 49 -9 47 -5 -1 -9 3 -9 8 0 6 4 9 9 8 5 -2 9 6 9 17 0 15 -7 20 -27
21 l-28 1 25 8 c14 4 19 8 13 9 -7 1 -15 12 -19 26 -3 14 -10 23 -14 20 -4 -2
-6 13 -5 35 1 22 -1 40 -6 40 -5 0 -6 7 -3 15 4 8 3 23 -2 33 -10 24 -11 33
-3 64 5 17 3 28 -5 31 -15 6 -21 93 -6 102 5 3 10 15 10 26 0 11 10 24 23 29
19 8 20 9 3 9 -11 1 -16 4 -13 8 4 3 17 1 30 -6 13 -7 48 -11 82 -9 l60 3 -38
12 c-26 8 -47 9 -63 2 -17 -6 -23 -6 -19 1 3 6 -2 10 -12 10 -13 0 -10 4 11
15 31 16 63 18 143 9 32 -4 50 -11 46 -17 -4 -6 5 -8 25 -4 17 3 32 3 34 -1 2
-4 47 -6 101 -4 93 4 97 5 71 18 -19 10 -31 11 -38 4 -15 -15 -46 -12 -46 4 0
7 18 18 40 24 35 9 43 7 65 -12 28 -24 27 -24 185 -10 55 5 70 9 55 16 -14 6
-9 7 17 4 26 -3 37 -1 35 7 -1 8 16 12 53 12 41 0 54 3 52 14 -2 10 10 12 59
6 44 -5 60 -4 55 4 -9 13 -15 12 64 17 94 7 325 78 314 96 -3 4 2 5 10 2 8 -3
32 4 55 15 22 12 47 21 56 21 8 0 15 4 15 8 0 5 23 23 51 41 51 34 67 59 75
120 3 19 10 41 16 48 8 11 7 12 -6 7 -20 -8 -21 6 -2 31 10 13 11 25 5 37 -6
11 -4 21 6 32 12 12 13 17 2 28 -14 15 -15 27 -3 46 4 7 3 19 -3 26 -6 7 -12
25 -13 40 -1 14 -6 26 -10 26 -4 0 -7 3 -6 8 3 9 -30 61 -57 88 -11 11 -40 45
-65 74 -25 30 -58 67 -74 82 -16 15 -25 28 -21 28 4 0 -10 12 -31 26 -21 14
-51 39 -66 56 -27 29 -161 118 -179 118 -5 0 -9 -4 -9 -10 0 -16 -27 -12 -34
5 -3 8 -2 14 2 12 4 -1 8 3 9 8 2 6 -9 13 -23 17 -14 4 -31 11 -38 17 -7 6
-15 8 -19 5 -8 -8 3 -35 12 -29 4 2 8 -2 8 -10 0 -19 -9 -19 -54 0 -19 8 -44
15 -55 15 -17 0 -18 3 -8 15 10 12 4 18 -32 35 -52 24 -60 50 -16 50 17 0 27
4 23 10 -6 10 -5 11 32 15 12 1 28 5 37 8 9 4 16 2 16 -3 0 -6 -5 -10 -12 -10
-6 0 -9 -3 -5 -6 3 -3 34 6 69 21 136 57 214 107 185 118 -7 3 2 6 18 6 29 1
52 18 184 133 39 34 36 45 -5 23 -33 -17 -64 -20 -64 -5 0 6 14 10 30 10 17 0
30 3 30 8 0 4 13 16 29 27 18 12 32 31 35 51 8 38 36 65 65 62 17 -2 28 8 51
50 16 28 26 52 23 52 -4 0 -2 5 5 12 7 7 12 28 12 48 0 20 3 40 7 44 13 12 14
56 2 56 -8 0 -8 4 1 15 8 10 9 24 4 42 -10 35 -11 44 -18 116 -3 31 -13 73
-21 93 -8 20 -12 40 -9 45 3 5 1 9 -5 9 -6 0 -13 11 -17 24 -3 13 -17 34 -30
47 -13 12 -24 28 -24 35 0 8 -13 20 -30 29 -16 9 -30 20 -30 25 0 18 -109 72
-131 65 -14 -5 -19 -3 -15 3 9 14 -21 30 -73 38 -23 4 -44 11 -47 15 -3 5 -19
9 -35 9 -16 0 -46 7 -66 15 -20 9 -60 18 -87 20 -28 2 -62 6 -76 9 -124 24
-439 30 -552 10 -25 -4 -38 -2 -38 5 0 12 -227 13 -315 1z m309 -1809 c4 -5 0
-12 -6 -14 -7 -3 7 -5 32 -6 33 0 40 3 25 9 -16 6 -10 9 25 11 52 5 205 -12
216 -23 4 -5 0 -8 -9 -8 -9 0 -17 -4 -17 -9 0 -5 30 -12 68 -14 95 -8 255 -33
224 -36 -7 0 -11 -5 -7 -11 4 -6 15 -6 31 0 33 13 32 13 30 -7 -1 -14 11 -20
54 -29 36 -7 55 -15 55 -25 0 -21 39 -49 69 -49 16 0 26 -6 26 -15 0 -8 11
-17 25 -21 28 -7 56 -34 35 -34 -8 0 -20 -7 -29 -15 -9 -8 -26 -24 -39 -35
-13 -12 -30 -19 -38 -16 -9 3 -27 0 -42 -8 -15 -7 -47 -17 -72 -21 -25 -4 -58
-13 -75 -21 -16 -8 -64 -20 -105 -25 -41 -6 -79 -15 -84 -20 -6 -5 -42 -9 -80
-9 -79 -1 -235 -22 -257 -35 -8 -5 -30 -10 -49 -10 -19 -1 -70 -2 -113 -3 -49
-1 -76 -6 -72 -12 3 -5 15 -10 26 -10 10 0 19 -4 19 -10 0 -14 -27 -12 -75 5
-21 8 -42 11 -45 7 -5 -8 -25 -12 -82 -17 l-36 -4 -1 72 c-3 132 -1 157 9 157
4 0 8 21 7 48 0 26 3 64 5 85 3 21 1 40 -4 43 -5 3 -4 12 3 20 9 11 9 18 1 26
-7 7 -8 18 -3 27 5 9 7 24 6 33 -4 25 21 30 144 27 61 -2 113 0 117 4 11 10
82 9 -88 -2z"/>
</g>
</svg>
